<mxfile host="app.diagrams.net" modified="2023-05-24T21:20:39.744Z" agent="Mozilla/5.0 (Windows NT 10.0; Win64; x64) AppleWebKit/537.36 (KHTML, like Gecko) Chrome/113.0.0.0 Safari/537.36" etag="0slZmYNF9f0ovs3soGIL" version="21.3.3" type="github">
  <diagram name="P치gina-1" id="iOs_ajI1nwwuBS4fxCmh">
    <mxGraphModel dx="1877" dy="581" grid="1" gridSize="10" guides="1" tooltips="1" connect="1" arrows="1" fold="1" page="1" pageScale="1" pageWidth="827" pageHeight="1169" math="0" shadow="0">
      <root>
        <mxCell id="0" />
        <mxCell id="1" parent="0" />
        <mxCell id="sEYuhav9WzD0Llk2mLcm-1" value="" style="rounded=0;whiteSpace=wrap;html=1;" vertex="1" parent="1">
          <mxGeometry x="160" y="10" width="520" height="590" as="geometry" />
        </mxCell>
        <mxCell id="sEYuhav9WzD0Llk2mLcm-37" style="rounded=0;orthogonalLoop=1;jettySize=auto;html=1;endArrow=none;endFill=0;" edge="1" parent="1" source="sEYuhav9WzD0Llk2mLcm-2" target="sEYuhav9WzD0Llk2mLcm-16">
          <mxGeometry relative="1" as="geometry" />
        </mxCell>
        <mxCell id="sEYuhav9WzD0Llk2mLcm-38" style="rounded=0;orthogonalLoop=1;jettySize=auto;html=1;endArrow=none;endFill=0;" edge="1" parent="1" source="sEYuhav9WzD0Llk2mLcm-2" target="sEYuhav9WzD0Llk2mLcm-17">
          <mxGeometry relative="1" as="geometry" />
        </mxCell>
        <mxCell id="sEYuhav9WzD0Llk2mLcm-39" style="rounded=0;orthogonalLoop=1;jettySize=auto;html=1;entryX=0;entryY=0.5;entryDx=0;entryDy=0;endArrow=none;endFill=0;" edge="1" parent="1" source="sEYuhav9WzD0Llk2mLcm-2" target="sEYuhav9WzD0Llk2mLcm-27">
          <mxGeometry relative="1" as="geometry" />
        </mxCell>
        <mxCell id="sEYuhav9WzD0Llk2mLcm-40" style="rounded=0;orthogonalLoop=1;jettySize=auto;html=1;entryX=0;entryY=0.5;entryDx=0;entryDy=0;endArrow=none;endFill=0;" edge="1" parent="1" source="sEYuhav9WzD0Llk2mLcm-2" target="sEYuhav9WzD0Llk2mLcm-28">
          <mxGeometry relative="1" as="geometry" />
        </mxCell>
        <mxCell id="sEYuhav9WzD0Llk2mLcm-47" style="rounded=0;orthogonalLoop=1;jettySize=auto;html=1;entryX=0;entryY=0.5;entryDx=0;entryDy=0;endArrow=none;endFill=0;" edge="1" parent="1" source="sEYuhav9WzD0Llk2mLcm-2" target="sEYuhav9WzD0Llk2mLcm-46">
          <mxGeometry relative="1" as="geometry" />
        </mxCell>
        <mxCell id="sEYuhav9WzD0Llk2mLcm-2" value="Pessoa" style="shape=umlActor;verticalLabelPosition=bottom;verticalAlign=top;html=1;outlineConnect=0;" vertex="1" parent="1">
          <mxGeometry x="100" y="280" width="30" height="60" as="geometry" />
        </mxCell>
        <mxCell id="sEYuhav9WzD0Llk2mLcm-4" value="Cliente" style="shape=umlActor;verticalLabelPosition=bottom;verticalAlign=top;html=1;outlineConnect=0;" vertex="1" parent="1">
          <mxGeometry x="10" y="420" width="30" height="60" as="geometry" />
        </mxCell>
        <mxCell id="sEYuhav9WzD0Llk2mLcm-5" style="edgeStyle=orthogonalEdgeStyle;rounded=0;orthogonalLoop=1;jettySize=auto;html=1;entryX=0;entryY=0.3333333333333333;entryDx=0;entryDy=0;entryPerimeter=0;endArrow=block;endFill=0;" edge="1" parent="1" target="sEYuhav9WzD0Llk2mLcm-2">
          <mxGeometry relative="1" as="geometry">
            <mxPoint x="40" y="470" as="sourcePoint" />
            <Array as="points">
              <mxPoint x="40" y="471" />
              <mxPoint x="80" y="471" />
              <mxPoint x="80" y="300" />
            </Array>
          </mxGeometry>
        </mxCell>
        <mxCell id="sEYuhav9WzD0Llk2mLcm-36" style="rounded=0;orthogonalLoop=1;jettySize=auto;html=1;endArrow=block;endFill=0;exitX=1;exitY=0.3333333333333333;exitDx=0;exitDy=0;exitPerimeter=0;" edge="1" parent="1" source="sEYuhav9WzD0Llk2mLcm-6">
          <mxGeometry relative="1" as="geometry">
            <mxPoint x="100" y="300" as="targetPoint" />
          </mxGeometry>
        </mxCell>
        <mxCell id="sEYuhav9WzD0Llk2mLcm-6" value="Filho de Santo" style="shape=umlActor;verticalLabelPosition=bottom;verticalAlign=top;html=1;outlineConnect=0;" vertex="1" parent="1">
          <mxGeometry x="20" y="280" width="30" height="60" as="geometry" />
        </mxCell>
        <mxCell id="sEYuhav9WzD0Llk2mLcm-35" style="edgeStyle=orthogonalEdgeStyle;rounded=0;orthogonalLoop=1;jettySize=auto;html=1;endArrow=block;endFill=0;" edge="1" parent="1" source="sEYuhav9WzD0Llk2mLcm-10">
          <mxGeometry relative="1" as="geometry">
            <mxPoint x="100" y="300" as="targetPoint" />
            <Array as="points">
              <mxPoint x="80" y="160" />
              <mxPoint x="80" y="300" />
            </Array>
          </mxGeometry>
        </mxCell>
        <mxCell id="sEYuhav9WzD0Llk2mLcm-49" style="rounded=0;orthogonalLoop=1;jettySize=auto;html=1;entryX=0;entryY=0.5;entryDx=0;entryDy=0;endArrow=none;endFill=0;" edge="1" parent="1" source="sEYuhav9WzD0Llk2mLcm-10" target="sEYuhav9WzD0Llk2mLcm-48">
          <mxGeometry relative="1" as="geometry" />
        </mxCell>
        <mxCell id="sEYuhav9WzD0Llk2mLcm-10" value="Babalorix치/Yalorix치" style="shape=umlActor;verticalLabelPosition=bottom;verticalAlign=top;html=1;outlineConnect=0;" vertex="1" parent="1">
          <mxGeometry x="10" y="130" width="30" height="60" as="geometry" />
        </mxCell>
        <mxCell id="sEYuhav9WzD0Llk2mLcm-60" style="rounded=0;orthogonalLoop=1;jettySize=auto;html=1;entryX=1;entryY=1;entryDx=0;entryDy=0;endArrow=none;endFill=0;" edge="1" parent="1" source="sEYuhav9WzD0Llk2mLcm-11" target="sEYuhav9WzD0Llk2mLcm-46">
          <mxGeometry relative="1" as="geometry" />
        </mxCell>
        <mxCell id="sEYuhav9WzD0Llk2mLcm-61" style="rounded=0;orthogonalLoop=1;jettySize=auto;html=1;entryX=1;entryY=0.5;entryDx=0;entryDy=0;endArrow=none;endFill=0;" edge="1" parent="1" source="sEYuhav9WzD0Llk2mLcm-11" target="sEYuhav9WzD0Llk2mLcm-50">
          <mxGeometry relative="1" as="geometry" />
        </mxCell>
        <mxCell id="sEYuhav9WzD0Llk2mLcm-11" value="Fornecedor" style="shape=umlActor;verticalLabelPosition=bottom;verticalAlign=top;html=1;outlineConnect=0;" vertex="1" parent="1">
          <mxGeometry x="730" y="280" width="30" height="60" as="geometry" />
        </mxCell>
        <mxCell id="sEYuhav9WzD0Llk2mLcm-14" value="Verificar senha" style="ellipse;whiteSpace=wrap;html=1;" vertex="1" parent="1">
          <mxGeometry x="190" y="160" width="90" height="50" as="geometry" />
        </mxCell>
        <mxCell id="sEYuhav9WzD0Llk2mLcm-25" style="edgeStyle=orthogonalEdgeStyle;rounded=0;orthogonalLoop=1;jettySize=auto;html=1;endArrow=none;endFill=0;" edge="1" parent="1" source="sEYuhav9WzD0Llk2mLcm-16" target="sEYuhav9WzD0Llk2mLcm-17">
          <mxGeometry relative="1" as="geometry" />
        </mxCell>
        <mxCell id="sEYuhav9WzD0Llk2mLcm-45" style="rounded=0;orthogonalLoop=1;jettySize=auto;html=1;dashed=1;dashPattern=1 4;endArrow=open;endFill=0;entryX=0.304;entryY=0.932;entryDx=0;entryDy=0;entryPerimeter=0;" edge="1" parent="1" source="sEYuhav9WzD0Llk2mLcm-16" target="sEYuhav9WzD0Llk2mLcm-14">
          <mxGeometry relative="1" as="geometry" />
        </mxCell>
        <mxCell id="sEYuhav9WzD0Llk2mLcm-16" value="Login" style="ellipse;whiteSpace=wrap;html=1;" vertex="1" parent="1">
          <mxGeometry x="170" y="250" width="90" height="50" as="geometry" />
        </mxCell>
        <mxCell id="sEYuhav9WzD0Llk2mLcm-58" style="rounded=0;orthogonalLoop=1;jettySize=auto;html=1;endArrow=none;endFill=0;" edge="1" parent="1" source="sEYuhav9WzD0Llk2mLcm-17" target="sEYuhav9WzD0Llk2mLcm-27">
          <mxGeometry relative="1" as="geometry" />
        </mxCell>
        <mxCell id="sEYuhav9WzD0Llk2mLcm-17" value="Fazer logout" style="ellipse;whiteSpace=wrap;html=1;" vertex="1" parent="1">
          <mxGeometry x="170" y="320" width="90" height="50" as="geometry" />
        </mxCell>
        <mxCell id="sEYuhav9WzD0Llk2mLcm-19" value="Cadastrar perfil" style="ellipse;whiteSpace=wrap;html=1;" vertex="1" parent="1">
          <mxGeometry x="170" y="390" width="90" height="50" as="geometry" />
        </mxCell>
        <mxCell id="sEYuhav9WzD0Llk2mLcm-20" value="Verificar perfil" style="ellipse;whiteSpace=wrap;html=1;" vertex="1" parent="1">
          <mxGeometry x="170" y="490" width="90" height="50" as="geometry" />
        </mxCell>
        <mxCell id="sEYuhav9WzD0Llk2mLcm-21" value="estender" style="text;html=1;strokeColor=none;fillColor=none;align=center;verticalAlign=middle;whiteSpace=wrap;rounded=0;" vertex="1" parent="1">
          <mxGeometry x="185" y="440" width="60" height="30" as="geometry" />
        </mxCell>
        <mxCell id="sEYuhav9WzD0Llk2mLcm-22" style="rounded=0;orthogonalLoop=1;jettySize=auto;html=1;endArrow=open;endFill=0;dashed=1;dashPattern=1 4;" edge="1" parent="1" source="sEYuhav9WzD0Llk2mLcm-23">
          <mxGeometry relative="1" as="geometry">
            <mxPoint x="228" y="251" as="targetPoint" />
          </mxGeometry>
        </mxCell>
        <mxCell id="sEYuhav9WzD0Llk2mLcm-23" value="Exibir erro login" style="ellipse;whiteSpace=wrap;html=1;" vertex="1" parent="1">
          <mxGeometry x="290" y="180" width="90" height="50" as="geometry" />
        </mxCell>
        <mxCell id="sEYuhav9WzD0Llk2mLcm-24" value="estender" style="text;html=1;strokeColor=none;fillColor=none;align=center;verticalAlign=middle;whiteSpace=wrap;rounded=0;rotation=60;" vertex="1" parent="1">
          <mxGeometry x="250" y="220" width="60" height="30" as="geometry" />
        </mxCell>
        <mxCell id="sEYuhav9WzD0Llk2mLcm-26" value="Aplicativo Sarav치" style="text;html=1;strokeColor=none;fillColor=none;align=center;verticalAlign=middle;whiteSpace=wrap;rounded=0;" vertex="1" parent="1">
          <mxGeometry x="356" y="10" width="116" height="30" as="geometry" />
        </mxCell>
        <mxCell id="sEYuhav9WzD0Llk2mLcm-59" style="edgeStyle=orthogonalEdgeStyle;rounded=0;orthogonalLoop=1;jettySize=auto;html=1;entryX=0.5;entryY=0;entryDx=0;entryDy=0;endArrow=open;endFill=0;dashed=1;dashPattern=1 4;" edge="1" parent="1" source="sEYuhav9WzD0Llk2mLcm-27" target="sEYuhav9WzD0Llk2mLcm-28">
          <mxGeometry relative="1" as="geometry" />
        </mxCell>
        <mxCell id="sEYuhav9WzD0Llk2mLcm-27" value="Cadastrar perfil" style="ellipse;whiteSpace=wrap;html=1;" vertex="1" parent="1">
          <mxGeometry x="170" y="390" width="90" height="50" as="geometry" />
        </mxCell>
        <mxCell id="sEYuhav9WzD0Llk2mLcm-28" value="Verificar perfil" style="ellipse;whiteSpace=wrap;html=1;" vertex="1" parent="1">
          <mxGeometry x="170" y="490" width="90" height="50" as="geometry" />
        </mxCell>
        <mxCell id="sEYuhav9WzD0Llk2mLcm-41" style="edgeStyle=orthogonalEdgeStyle;rounded=0;orthogonalLoop=1;jettySize=auto;html=1;entryX=0;entryY=0;entryDx=0;entryDy=0;exitX=0;exitY=0.5;exitDx=0;exitDy=0;dashed=1;dashPattern=1 4;endArrow=open;endFill=0;" edge="1" parent="1" source="sEYuhav9WzD0Llk2mLcm-30">
          <mxGeometry relative="1" as="geometry">
            <mxPoint x="216" y="540" as="targetPoint" />
            <Array as="points">
              <mxPoint x="216" y="560" />
            </Array>
          </mxGeometry>
        </mxCell>
        <mxCell id="sEYuhav9WzD0Llk2mLcm-30" value="Altera informa칞칫es de perfil" style="ellipse;whiteSpace=wrap;html=1;" vertex="1" parent="1">
          <mxGeometry x="276" y="530" width="114" height="60" as="geometry" />
        </mxCell>
        <mxCell id="sEYuhav9WzD0Llk2mLcm-32" value="" style="rounded=0;orthogonalLoop=1;jettySize=auto;html=1;dashed=1;dashPattern=1 4;endArrow=open;endFill=0;" edge="1" parent="1" source="sEYuhav9WzD0Llk2mLcm-33" target="sEYuhav9WzD0Llk2mLcm-30">
          <mxGeometry relative="1" as="geometry" />
        </mxCell>
        <mxCell id="sEYuhav9WzD0Llk2mLcm-33" value="Exibir informa칞칫es de privacidade" style="ellipse;whiteSpace=wrap;html=1;" vertex="1" parent="1">
          <mxGeometry x="460" y="530" width="100" height="60" as="geometry" />
        </mxCell>
        <mxCell id="sEYuhav9WzD0Llk2mLcm-34" value="Incluir" style="text;html=1;strokeColor=none;fillColor=none;align=center;verticalAlign=middle;whiteSpace=wrap;rounded=0;" vertex="1" parent="1">
          <mxGeometry x="400" y="540" width="60" height="30" as="geometry" />
        </mxCell>
        <mxCell id="sEYuhav9WzD0Llk2mLcm-42" value="estender" style="text;html=1;strokeColor=none;fillColor=none;align=center;verticalAlign=middle;whiteSpace=wrap;rounded=0;" vertex="1" parent="1">
          <mxGeometry x="216" y="540" width="60" height="30" as="geometry" />
        </mxCell>
        <mxCell id="sEYuhav9WzD0Llk2mLcm-18" value="Incluir" style="text;html=1;strokeColor=none;fillColor=none;align=center;verticalAlign=middle;whiteSpace=wrap;rounded=0;" vertex="1" parent="1">
          <mxGeometry x="185" y="220" width="60" height="30" as="geometry" />
        </mxCell>
        <mxCell id="sEYuhav9WzD0Llk2mLcm-51" style="rounded=0;orthogonalLoop=1;jettySize=auto;html=1;entryX=0;entryY=0.5;entryDx=0;entryDy=0;endArrow=none;endFill=0;" edge="1" parent="1" source="sEYuhav9WzD0Llk2mLcm-46" target="sEYuhav9WzD0Llk2mLcm-50">
          <mxGeometry relative="1" as="geometry" />
        </mxCell>
        <mxCell id="sEYuhav9WzD0Llk2mLcm-46" value="Pesquisar casa de Santo" style="ellipse;whiteSpace=wrap;html=1;" vertex="1" parent="1">
          <mxGeometry x="185" y="100" width="100" height="50" as="geometry" />
        </mxCell>
        <mxCell id="sEYuhav9WzD0Llk2mLcm-48" value="Cadastra Casa de Santo" style="ellipse;whiteSpace=wrap;html=1;" vertex="1" parent="1">
          <mxGeometry x="245" y="30" width="94" height="60" as="geometry" />
        </mxCell>
        <mxCell id="sEYuhav9WzD0Llk2mLcm-50" value="Pesquisar usu치rios" style="ellipse;whiteSpace=wrap;html=1;" vertex="1" parent="1">
          <mxGeometry x="300" y="100" width="100" height="50" as="geometry" />
        </mxCell>
        <mxCell id="sEYuhav9WzD0Llk2mLcm-52" style="rounded=0;orthogonalLoop=1;jettySize=auto;html=1;endArrow=open;endFill=0;dashed=1;dashPattern=1 4;entryX=1;entryY=0.5;entryDx=0;entryDy=0;" edge="1" parent="1" source="sEYuhav9WzD0Llk2mLcm-53" target="sEYuhav9WzD0Llk2mLcm-16">
          <mxGeometry relative="1" as="geometry">
            <mxPoint x="470" y="95" as="targetPoint" />
          </mxGeometry>
        </mxCell>
        <mxCell id="sEYuhav9WzD0Llk2mLcm-53" value="Agendar atendimento" style="ellipse;whiteSpace=wrap;html=1;" vertex="1" parent="1">
          <mxGeometry x="356" y="250" width="90" height="50" as="geometry" />
        </mxCell>
        <mxCell id="sEYuhav9WzD0Llk2mLcm-54" value="estender" style="text;html=1;strokeColor=none;fillColor=none;align=center;verticalAlign=middle;whiteSpace=wrap;rounded=0;" vertex="1" parent="1">
          <mxGeometry x="288" y="250" width="60" height="30" as="geometry" />
        </mxCell>
        <mxCell id="sEYuhav9WzD0Llk2mLcm-55" style="rounded=0;orthogonalLoop=1;jettySize=auto;html=1;endArrow=open;endFill=0;dashed=1;dashPattern=1 4;exitX=1;exitY=0.5;exitDx=0;exitDy=0;" edge="1" parent="1" target="sEYuhav9WzD0Llk2mLcm-56" source="sEYuhav9WzD0Llk2mLcm-48">
          <mxGeometry relative="1" as="geometry">
            <mxPoint x="332" y="380" as="sourcePoint" />
          </mxGeometry>
        </mxCell>
        <mxCell id="sEYuhav9WzD0Llk2mLcm-56" value="Registra filial" style="ellipse;whiteSpace=wrap;html=1;" vertex="1" parent="1">
          <mxGeometry x="400" y="35" width="90" height="50" as="geometry" />
        </mxCell>
        <mxCell id="sEYuhav9WzD0Llk2mLcm-57" value="estender" style="text;html=1;strokeColor=none;fillColor=none;align=center;verticalAlign=middle;whiteSpace=wrap;rounded=0;rotation=0;" vertex="1" parent="1">
          <mxGeometry x="340" y="35" width="60" height="30" as="geometry" />
        </mxCell>
      </root>
    </mxGraphModel>
  </diagram>
</mxfile>
